HIERARCHY
ROOT Hips
{
     OFFSET -0.22329 98.25860 36.60190
     CHANNELS 6 Xposition Yposition Zposition Zrotation Xrotation Yrotation
     JOINT Spine
     {
          OFFSET -0.00000 11.89050 0.00000
          CHANNELS 3 Zrotation Xrotation Yrotation
          JOINT Spine1
          {
               OFFSET -0.00000 25.65740 0.12766
               CHANNELS 3 Zrotation Xrotation Yrotation
               JOINT HEad
               {
                    OFFSET 0.00000 8.73416 0.01134
                    CHANNELS 3 Zrotation Xrotation Yrotation
                    End Site
                    {
                         OFFSET -0.29000 12.77420 2.51395
                    }
               }
               JOINT LeftShoulder1
               {
                    OFFSET 8.99000 -0.36225 -0.22000
                    CHANNELS 3 Zrotation Xrotation Yrotation
                    JOINT LeftArm
                    {
                         OFFSET 10.28270 -0.00338 0.32212
                         CHANNELS 3 Zrotation Xrotation Yrotation
                         JOINT LeftForeArm
                         {
                              OFFSET 32.76690 0.09914 -1.42434
                              CHANNELS 3 Zrotation Xrotation Yrotation
                              JOINT LeftHand
                              {
                                   OFFSET 27.56430 0.08536 1.02216
                                   CHANNELS 3 Zrotation Xrotation Yrotation
                                   End Site
                                   {
                                        OFFSET 16.74430 -0.60000 1.50291
                                   }
                              }
                         }
                    }
               }
               JOINT RightShoulder
               {
                    OFFSET -8.99000 -0.36225 -0.22000
                    CHANNELS 3 Zrotation Xrotation Yrotation
                    JOINT RightArm
                    {
                         OFFSET -10.28270 -0.00338 0.32212
                         CHANNELS 3 Zrotation Xrotation Yrotation
                         JOINT RightForeArm
                         {
                              OFFSET -32.89710 0.09914 -1.42434
                              CHANNELS 3 Zrotation Xrotation Yrotation
                              JOINT RightHand
                              {
                                   OFFSET -27.49210 0.08536 1.02216
                                   CHANNELS 3 Zrotation Xrotation Yrotation
                                   End Site
                                   {
                                        OFFSET -16.63120 -0.60000 1.50291
                                   }
                              }
                         }
                    }
               }
          }
     }
     JOINT LeftUpLeg
     {
          OFFSET 8.94580 -8.66707 0.10165
          CHANNELS 3 Zrotation Xrotation Yrotation
          JOINT LeftLeg
          {
               OFFSET -0.00000 -44.42270 1.37270
               CHANNELS 3 Zrotation Xrotation Yrotation
               JOINT LeftFoot
               {
                    OFFSET -0.25355 -42.09240 -1.46059
                    CHANNELS 3 Zrotation Xrotation Yrotation
                    JOINT LeftToes
                    {
                         OFFSET -0.04000 -4.41509 8.49910
                         CHANNELS 3 Zrotation Xrotation Yrotation
                         End Site
                         {
                              OFFSET 0.08000 -0.04745 9.77979
                         }
                    }
               }
          }
     }
     JOINT RightUpLeg
     {
          OFFSET -8.94580 -8.66707 0.10165
          CHANNELS 3 Zrotation Xrotation Yrotation
          JOINT RightLeg
          {
               OFFSET 0.00000 -44.42270 1.37270
               CHANNELS 3 Zrotation Xrotation Yrotation
               JOINT RightFoot
               {
                    OFFSET 0.25355 -42.09240 -1.46059
                    CHANNELS 3 Zrotation Xrotation Yrotation
                    JOINT RightToes
                    {
                         OFFSET 0.04000 -4.41509 8.49910
                         CHANNELS 3 Zrotation Xrotation Yrotation
                         End Site
                         {
                              OFFSET -0.08000 -0.13745 9.77979
                         }
                    }
               }
          }
     }
}
MOTION
Frames: 8
Frame Time: 0.01667
91.94700 100.67200 46.51120 -2.62581 -2.27816 -24.84420 4.78249 4.01921 -2.65374 6.23109 8.12457 -4.99827 -3.92269 -4.93733 11.36960 -0.00000 -0.00000 0.00000 -92.02610 -37.06710 -101.26900 -26.68170 12.45800 -67.53710 8.66420 8.18820 -20.23100 6.89168 0.77767 4.33968 66.19520 0.96752 92.31670 30.12530 7.53303 54.76110 -12.41090 6.70850 26.44870 4.93281 -11.18400 -12.67420 3.19950 10.63880 -5.48779 3.25283 2.23859 -0.31004 -2.13352 -0.52142 10.96840 -2.12713 0.23938 -21.30490 -15.24130 16.32540 32.80490 0.28927 -24.43960 -0.24185 0.65498 17.85100 -6.21149 
92.39640 100.74500 47.09950 -2.45430 -2.07642 -25.77630 4.53729 4.10109 -2.45615 6.24043 8.24646 -4.65285 -3.86334 -5.62769 11.52270 -0.00000 -0.00000 0.00000 -93.15970 -37.43730 -102.36800 -26.78120 13.20850 -67.65160 8.88898 8.13122 -20.34360 6.51012 0.75537 4.32337 66.44760 0.89666 92.97810 30.19010 7.68922 54.87970 -12.62760 6.61480 26.75180 4.70222 -11.31770 -12.24130 2.90617 11.16280 -4.85564 3.38667 1.63511 -0.30026 -2.23777 -0.11666 10.86640 -2.54598 0.33576 -21.42000 -15.41520 15.40880 33.08850 1.78173 -24.29850 -0.01661 0.64061 18.04120 -6.17624 
92.84720 100.82200 47.66470 -2.27160 -1.89179 -26.86220 4.29368 4.16142 -2.21753 6.21584 8.33001 -4.21074 -3.90338 -6.28589 11.74690 -0.00000 -0.00000 0.00000 -93.88850 -37.93120 -103.16100 -26.85450 13.53330 -67.74020 8.97044 8.10400 -20.47070 5.97608 0.75411 4.60984 66.70910 0.72663 93.58830 30.44060 7.34726 54.77080 -12.72730 6.54721 27.10430 4.54386 -11.44290 -12.42890 2.38239 11.71080 -3.36863 3.32365 0.87794 -0.26874 -2.38241 0.52451 10.62020 -3.08479 0.27731 -21.58890 -15.45840 14.86270 32.42310 3.74713 -24.22670 0.27728 0.67458 18.46740 -6.32034 
93.29340 100.89600 48.20940 -2.10797 -1.71479 -28.03870 4.12128 4.20237 -1.95540 6.17997 8.38859 -3.69707 -4.04633 -6.87389 12.00330 -0.00000 -0.00000 0.00000 -94.19190 -38.48160 -103.66800 -26.89180 13.40960 -67.78570 8.97727 8.09270 -20.60160 5.23449 0.75407 5.07596 66.99280 0.53738 94.24540 30.76640 6.52843 54.44030 -12.73830 6.49921 27.50170 4.41696 -11.56190 -13.00800 1.77832 12.27800 -1.34201 3.10129 -0.00796 -0.22295 -2.56149 1.35375 10.28780 -3.79691 -0.01252 -21.85880 -15.28430 15.04870 30.19200 6.44431 -24.34840 0.68849 0.62967 19.45940 -6.23870 
93.71950 100.96400 48.72530 -1.98145 -1.55533 -29.22120 4.03266 4.23704 -1.68509 6.15209 8.44747 -3.13664 -4.26113 -7.35579 12.22870 -0.00000 -0.00000 0.00000 -94.16860 -38.99040 -103.94300 -26.87160 12.94720 -67.78800 8.97426 8.08427 -20.72310 4.29882 0.73843 5.57836 67.30050 0.37790 95.01420 30.93310 5.42586 53.95100 -12.71180 6.46019 27.91440 4.28759 -11.66880 -13.71790 1.21651 12.85330 0.82310 2.82136 -0.91496 -0.17651 -2.74738 2.22278 9.95756 -4.71641 -0.52372 -22.31820 -14.85360 16.18260 26.16140 9.68421 -24.68530 1.20786 0.39446 20.98500 -5.60186 
94.10470 101.01100 49.20100 -1.90080 -1.43633 -30.34100 4.00474 4.27528 -1.41477 6.13033 8.52472 -2.54709 -4.50049 -7.73118 12.40440 -0.00000 -0.00000 0.00000 -93.97920 -39.38170 -104.06200 -26.79620 12.32780 -67.74850 8.99542 8.07261 -20.81610 3.25821 0.70203 6.00738 67.62160 0.26249 95.88170 30.77870 4.27279 53.38260 -12.68490 6.42361 28.30750 4.16290 -11.77560 -14.36420 0.69877 13.47550 2.82140 2.69667 -1.70980 -0.14570 -2.88429 2.88858 9.69809 -5.83489 -1.15449 -23.03850 -14.19540 18.24950 20.82850 12.64300 -25.18140 1.72319 -0.01072 22.51680 -4.50416 
94.42960 101.02800 49.62810 -1.85623 -1.37940 -31.35760 4.00195 4.31241 -1.14960 6.09082 8.61178 -1.94452 -4.71007 -8.01525 12.56850 -0.00000 -0.00000 0.00000 -93.74540 -39.64230 -104.09100 -26.69870 11.71060 -67.66660 9.04976 8.05584 -20.87830 2.24058 0.65190 6.31600 67.93930 0.18219 96.75640 30.33760 3.23767 52.81780 -12.68280 6.38558 28.64910 4.05586 -11.89040 -14.81780 0.18523 14.16450 4.49440 2.85857 -2.30991 -0.13556 -2.92028 3.17995 9.49016 -7.09584 -1.77627 -24.01250 -13.44220 21.01670 15.35070 14.28260 -25.77210 2.06229 -0.37952 23.41720 -3.51447 
94.68250 101.01500 50.00690 -1.81878 -1.38431 -32.25100 3.99027 4.33100 -0.89789 6.00234 8.67430 -1.35182 -4.84227 -8.19382 12.76950 -0.00000 -0.00000 0.00000 -93.50700 -39.81770 -104.05500 -26.61660 11.18550 -67.55200 9.13482 8.03193 -20.94370 1.36241 0.60065 6.51759 68.23010 0.11090 97.51070 29.80310 2.38890 52.33510 -12.71600 6.34396 28.92830 3.96101 -12.00320 -15.01320 -0.32103 14.86720 5.81064 3.23489 -2.71464 -0.13933 -2.84143 3.11827 9.23865 -8.40225 -2.30481 -25.13150 -12.86680 24.12390 10.96250 14.30260 -26.37270 2.14281 -0.52350 23.59030 -3.11571 
